<svg width="40" height="40" viewBox="0 0 40 40" fill="none" xmlns="http://www.w3.org/2000/svg">
<circle cx="20" cy="20" r="20" fill="#908CFF"/>
<path fill-rule="evenodd" clip-rule="evenodd" d="M24 22C22.9932 22.0001 22.0538 22.5062 21.5 23.347C20.5534 22.885 19.4466 22.885 18.5 23.347C17.7067 22.134 16.1608 21.6595 14.8236 22.2185C13.4863 22.7776 12.7381 24.2111 13.0442 25.6279C13.3503 27.0446 14.6235 28.0414 16.0723 27.9985C17.5211 27.9557 18.7332 26.8854 18.955 25.453C19.5418 24.8978 20.4602 24.8978 21.047 25.453C21.291 27.0297 22.7281 28.1383 24.315 27.9741C25.902 27.8099 27.0816 26.4305 26.9976 24.8373C26.9136 23.2441 25.5954 21.9964 24 22ZM16 26C15.4477 26 15 25.5523 15 25C15 24.4477 15.4477 24 16 24C16.5523 24 17 24.4477 17 25C17 25.5523 16.5523 26 16 26ZM23 25C23 25.5523 23.4477 26 24 26C24.5523 26 25 25.5523 25 25C25 24.4477 24.5523 24 24 24C23.4477 24 23 24.4477 23 25Z" fill="white"/>
<path d="M24.8 16L24 12H16L15.2 16H24.8Z" fill="white"/>
<path d="M25 17H15L12 20H28L25 17Z" fill="white"/>
</svg>
